<?xml version="1.0" encoding="utf-8"?>
<!-- Generator: Adobe Illustrator 23.0.2, SVG Export Plug-In . SVG Version: 6.00 Build 0)  -->
<svg version="1.1" id="Ebene_1" xmlns="http://www.w3.org/2000/svg" xmlns:xlink="http://www.w3.org/1999/xlink" x="0px" y="0px"
	 viewBox="0 0 60 60" style="enable-background:new 0 0 60 60;" xml:space="preserve">
<style type="text/css">
	.st0{fill-rule:evenodd;clip-rule:evenodd;fill:#0F2E53;}
</style>
<path class="st0" d="M29.2,3.4C14,3.4,1.7,15.7,1.7,30.9c0,12.1,7.9,22.4,18.8,26c1.4,0.3,1.9-0.6,1.9-1.3c0-0.7,0-2.4,0-4.7
	c-7.6,1.7-9.2-3.7-9.2-3.7c-1.2-3.2-3-4-3-4c-2.5-1.7,0.2-1.7,0.2-1.7c2.8,0.2,4.2,2.8,4.2,2.8c2.4,4.2,6.4,3,8,2.3
	c0.2-1.8,1-3,1.7-3.7c-6.1-0.7-12.5-3-12.5-13.6c0-3,1.1-5.4,2.8-7.4c-0.3-0.7-1.2-3.5,0.3-7.3c0,0,2.3-0.7,7.5,2.8
	c2.2-0.6,4.5-0.9,6.9-0.9c2.3,0,4.7,0.3,6.9,0.9c5.2-3.6,7.5-2.8,7.5-2.8c1.5,3.8,0.6,6.6,0.3,7.3c1.8,1.9,2.8,4.4,2.8,7.4
	c0,10.5-6.4,12.9-12.5,13.5c1,0.8,1.9,2.5,1.9,5.1c0,3.7,0,6.6,0,7.5c0,0.7,0.5,1.6,1.9,1.3c10.9-3.6,18.8-13.9,18.8-26
	C56.6,15.7,44.3,3.4,29.2,3.4z"/>
</svg>
